<svg xmlns="http://www.w3.org/2000/svg" data-name="Livello 1" viewBox="0 0 24 30" x="0px" y="0px">
    <path fill="#068E2C" data-name="leaf" d="M19.55,16.48a43.17,43.17,0,0,0,2.29-5.81A45.15,45.15,0,0,0,23.81,0,55.27,55.27,0,0,0,13.48,2.11,53.37,53.37,0,0,0,7.61,4.29,8.23,8.23,0,0,0,3,14.31,29.16,29.16,0,0,1,15.4,7.64c-1.17.67-10,7.64-11.54,9.18a19.8,19.8,0,0,0-2.53,3.13c-0.2.34-.39,0.67-0.55,1L3.86,24A12.5,12.5,0,0,1,6.65,19.6l0.18-.16A9.91,9.91,0,0,0,10.28,21,8.17,8.17,0,0,0,19.55,16.48Z"/>
</svg>