<svg width="37" height="34" viewBox="0 0 37 34" fill="none" xmlns="http://www.w3.org/2000/svg">
<path d="M14.3365 12.5989C14.0913 12.5989 13.8917 12.7989 13.8917 13.0446C13.8917 13.2904 14.0913 13.4902 14.3365 13.4902C14.5818 13.4902 14.7814 13.2904 14.7814 13.0446C14.7814 12.799 14.5817 12.5989 14.3365 12.5989Z" fill="#6400B3"/>
<path d="M13.3451 9.34019C12.1187 9.34019 11.121 10.3397 11.121 11.5683C11.121 12.7587 12.0578 13.7343 13.2318 13.7936C13.0869 13.5798 13.0021 13.3219 13.0021 13.0446C13.0021 12.3075 13.6008 11.7078 14.3366 11.7078C14.798 11.7078 15.2053 11.9437 15.445 12.3014C15.5251 12.0716 15.5692 11.8251 15.5692 11.5683C15.5692 10.3397 14.5714 9.34019 13.3451 9.34019Z" fill="#6400B3"/>
<path d="M21.5138 12.4595C21.2685 12.4595 21.069 12.6594 21.069 12.9052C21.069 13.1509 21.2685 13.3508 21.5138 13.3508C21.7591 13.3508 21.9586 13.1509 21.9586 12.9052C21.9586 12.6594 21.7591 12.4595 21.5138 12.4595Z" fill="#6400B3"/>
<path d="M5.26199 5.56284C5.43556 5.38878 5.7174 5.38878 5.89097 5.56284L7.91517 7.5906C8.36248 6.80149 8.90053 6.07076 9.51492 5.41213L7.77825 3.67233C7.6045 3.49827 7.6045 3.2161 7.77825 3.04204C8.4719 2.34714 8.4719 1.21624 7.77825 0.521338C7.08433 -0.173744 5.95564 -0.173744 5.2619 0.521338C4.86254 0.921506 4.6791 1.47292 4.75872 2.03405C4.80062 2.32887 4.54743 2.58011 4.25581 2.53796C3.16938 2.38368 2.22449 3.2292 2.22449 4.30253C2.22449 4.77863 2.40962 5.2263 2.74564 5.56301C3.43938 6.25774 4.56816 6.25774 5.26199 5.56284Z" fill="#6400B3"/>
<path d="M22.6863 9.34019C21.2821 9.34019 20.2185 10.6383 20.5099 12.0273C20.7547 11.7467 21.1135 11.5683 21.5139 11.5683C22.2498 11.5683 22.8483 12.168 22.8483 12.9052C22.8483 13.2441 22.7207 13.5531 22.5125 13.7889C23.8146 13.8915 24.9104 12.8552 24.9104 11.5683C24.9104 10.3397 23.9127 9.34019 22.6863 9.34019Z" fill="#6400B3"/>
<path d="M26.3696 5.54207C26.9751 6.21157 27.5029 6.95273 27.939 7.75119L30.1234 5.56283C30.2968 5.38913 30.5783 5.3885 30.7524 5.56283C31.4476 6.25934 32.5732 6.25952 33.2687 5.56283C33.9624 4.86775 33.9624 3.73703 33.2687 3.04195C32.8693 2.64187 32.3185 2.45809 31.7585 2.53786C31.4657 2.57975 31.214 2.32788 31.2556 2.03413C31.3352 1.47274 31.1517 0.921323 30.7524 0.521244C30.0585 -0.173837 28.9298 -0.173659 28.2361 0.521244C27.5408 1.21784 27.5408 2.34526 28.2361 3.04195C28.4097 3.21565 28.4099 3.49809 28.2361 3.67224L26.3696 5.54207Z" fill="#6400B3"/>
<path d="M8.56005 27.1651H6.26131C5.82254 27.1651 5.40271 27.0831 5.01528 26.9349L3.66693 28.2857C3.49337 28.4597 3.2117 28.4596 3.03796 28.2857C2.34413 27.5907 1.21544 27.5907 0.521608 28.2857C-0.173914 28.9824 -0.173825 30.1098 0.521608 30.8065C0.921057 31.2067 1.47139 31.3906 2.03177 31.3106C2.32438 31.2687 2.5765 31.5208 2.53469 31.8144C2.38034 32.9027 3.22478 33.8494 4.296 33.8494C4.77134 33.8494 5.21811 33.664 5.55422 33.3274C6.24796 32.6323 6.24796 31.5016 5.55422 30.8065C5.38047 30.6326 5.38047 30.3504 5.55422 30.1764L8.56005 27.1651Z" fill="#6400B3"/>
<path d="M32.9765 28.2856C32.8029 28.4597 32.5211 28.4597 32.3475 28.2856L30.9258 26.8614C30.4908 27.0561 30.0096 27.1651 29.5032 27.1651H27.4545L30.4603 30.1763C30.6337 30.3498 30.6343 30.632 30.4603 30.8065C29.765 31.503 29.765 32.6306 30.4603 33.3272C31.154 34.0222 32.2826 34.0222 32.9766 33.3272C33.3759 32.9272 33.5594 32.3757 33.4798 31.8144C33.4383 31.5213 33.6889 31.2692 33.9827 31.3106C34.543 31.3903 35.0934 31.2066 35.4929 30.8065C36.1866 30.1114 36.1866 28.9806 35.4929 28.2856C34.7989 27.5906 33.6702 27.5908 32.9765 28.2856Z" fill="#6400B3"/>
<path d="M32.1165 23.6558C32.1165 22.2122 30.9441 21.0378 29.5031 21.0378H28.8915C28.6458 21.0378 28.4467 20.8383 28.4467 20.5921V13.2394C28.4467 7.4036 23.7074 2.65586 17.8822 2.65586C12.057 2.65586 7.31772 7.4036 7.31772 13.2394V20.5921C7.31772 20.8383 7.11862 21.0378 6.8729 21.0378H6.26127C4.82032 21.0378 3.64795 22.2122 3.64795 23.6558C3.64795 25.0993 4.82032 26.2738 6.26127 26.2738H10.6761C10.9218 26.2738 11.1209 26.4733 11.1209 26.7194V30.73H12.0995V28.5019C12.0995 28.2558 12.2986 28.0563 12.5444 28.0563C12.7901 28.0563 12.9892 28.2558 12.9892 28.5019V30.73H13.8788V28.5019C13.8788 28.2558 14.0779 28.0563 14.3236 28.0563C14.5694 28.0563 14.7685 28.2558 14.7685 28.5019V30.73H15.6581V28.5019C15.6581 28.2558 15.8572 28.0563 16.1029 28.0563C16.3486 28.0563 16.5477 28.2558 16.5477 28.5019V30.73H17.4374V28.5019C17.4374 28.2558 17.6365 28.0563 17.8822 28.0563C18.1279 28.0563 18.327 28.2558 18.327 28.5019V30.73H19.2167V28.5019C19.2167 28.2558 19.4158 28.0563 19.6615 28.0563C19.9072 28.0563 20.1063 28.2558 20.1063 28.5019V30.73H20.996V28.5019C20.996 28.2558 21.1951 28.0563 21.4408 28.0563C21.6865 28.0563 21.8856 28.2558 21.8856 28.5019V30.73H22.7752V28.5019C22.7752 28.2558 22.9743 28.0563 23.2201 28.0563C23.4658 28.0563 23.6649 28.2558 23.6649 28.5019V30.73H24.9104V26.7194C24.9104 26.4733 25.1095 26.2738 25.3552 26.2738H29.5031C30.9441 26.2738 32.1165 25.0993 32.1165 23.6558ZM13.345 14.6877C11.6281 14.6877 10.2313 13.2883 10.2313 11.5683C10.2313 9.84829 11.6281 8.44894 13.345 8.44894C15.062 8.44894 16.4588 9.84829 16.4588 11.5683C16.4588 13.2883 15.062 14.6877 13.345 14.6877ZM22.6863 14.6877C20.9694 14.6877 19.5725 13.2883 19.5725 11.5683C19.5725 9.84829 20.9694 8.44894 22.6863 8.44894C24.4032 8.44894 25.8 9.84829 25.8 11.5683C25.8 13.2883 24.4032 14.6877 22.6863 14.6877Z" fill="#6400B3"/>
</svg>
